:SAMPLES-PER-SECOND 30
:FULLY-SPECIFIED
:DEGREES
394
root  1.29959 39.8001 -22.8042 169.718 -75.0991 -175.39
RightUpLeg  8.37396 -9.33274 0.103903
RightLeg  14.676 -8.43924 3.06624
RightFoot  -15.1619 -0.199234 -2.94558
RightToes  0.00048216 0.542163 -0.142577
Spine  8.81327 2.67026 11.1794
Spine1  10.7054 5.20413 -5.10717
HEad  -1.08991 16.6075 -7.26233
LeftShoulder1  7.57324 -11.2617 -44.6738
LeftArm  -5.33598 19.5532 -28.3158
LeftForeArm  38.9481 -10.9057 -6.0737
LeftHand  -0.25398 0.0180481 5.50724
RightShoulder  4.53878 8.0835 33.2273
RightArm  4.25131 -4.21862 38.8271
RightForeArm  2.5948 32.3848 7.00725
RightHand  -2.23333 6.63364 -21.7173
LeftUpLeg  -17.1688 9.01915 -2.5687
LeftLeg  12.3878 5.94319 0.361396
LeftFoot  1.69954 0.147721 -1.38982
LeftToes  1.06247e-005 4.65855e-005 -8.18501e-006
395
root  -0.221401 39.6398 -23.2971 169.542 -75.3581 -175.309
RightUpLeg  11.7188 -9.60037 -0.411078
RightLeg  13.7418 -8.04197 3.36153
RightFoot  -16.8569 -0.174157 -1.26698
RightToes  0.00048216 0.542163 -0.142577
Spine  8.36343 2.71946 10.7481
Spine1  11.0355 5.34585 -5.62539
HEad  -0.179251 17.1214 -7.13257
LeftShoulder1  7.38671 -11.0314 -44.2434
LeftArm  -5.98883 22.0386 -28.0713
LeftForeArm  37.8996 -11.2453 -5.78142
LeftHand  -0.25398 0.0180481 5.50724
RightShoulder  4.55464 8.09659 33.3194
RightArm  4.24491 -4.41449 38.7073
RightForeArm  3.24405 33.3743 7.23418
RightHand  -2.31912 6.90014 -22.0542
LeftUpLeg  -14.8621 3.39928 -0.720851
LeftLeg  0.757348 18.6183 -5.16615
LeftFoot  0.791132 0.200021 -1.9143
LeftToes  1.06247e-005 4.65855e-005 -8.18501e-006
396
root  -1.8281 39.3427 -23.7692 167.321 -75.8333 -173.186
RightUpLeg  14.68 -10.9515 -0.913706
RightLeg  14.3439 -6.86477 3.55512
RightFoot  -18.3166 -0.103903 0.353337
RightToes  0.00048216 0.542163 -0.142577
Spine  7.77653 2.67861 10.7278
Spine1  11.1916 5.34592 -5.89207
HEad  0.859832 17.7311 -6.82764
LeftShoulder1  7.19237 -10.7677 -43.8541
LeftArm  -6.70105 24.2314 -27.8871
LeftForeArm  36.9297 -11.6711 -5.45687
LeftHand  -0.25398 0.0180481 5.50724
RightShoulder  4.51698 8.00701 33.2979
RightArm  4.28 -4.85042 38.926
RightForeArm  3.811 33.159 7.14479
RightHand  -2.34975 7.04932 -22.078
LeftUpLeg  -13.9833 1.63669 -0.755077
LeftLeg  -4.89285 25.7393 -8.56934
LeftFoot  -0.637744 0.0463837 -0.437031
LeftToes  1.06247e-005 4.65855e-005 -8.18501e-006
397
root  -3.48748 39.0746 -24.2589 167.064 -76.5868 -172.947
RightUpLeg  17.4059 -14.1575 -2.73898
RightLeg  15.805 -3.43815 3.59424
RightFoot  -19.0446 -0.00335244 1.82905
RightToes  0.00048216 0.542163 -0.142577
Spine  7.01759 2.74976 9.73929
Spine1  11.5544 5.40619 -5.85625
HEad  1.6126 18.2858 -6.29204
LeftShoulder1  6.98803 -10.4684 -43.5011
LeftArm  -7.32078 25.8252 -27.6108
LeftForeArm  36.0913 -12.0622 -5.17553
LeftHand  -0.25398 0.0180481 5.50724
RightShoulder  4.49994 7.88654 33.562
RightArm  3.98427 -5.68757 39.1183
RightForeArm  4.20278 32.165 6.85964
RightHand  -2.26782 6.89217 -21.5999
LeftUpLeg  -14.2698 1.29602 -2.04856
LeftLeg  -3.83622 28.6498 -8.43425
LeftFoot  0.657066 -0.508545 4.61739
LeftToes  1.06247e-005 4.65855e-005 -8.18501e-006
398
root  -5.18571 38.8427 -24.785 170.762 -77.5434 -177.017
RightUpLeg  19.8921 -19.4723 -6.73727
RightLeg  19.1344 3.13142 3.3437
RightFoot  -19.3691 0.222741 4.98167
RightToes  0.00048216 0.542163 -0.142577
Spine  6.53852 3.0868 7.16327
Spine1  11.9546 5.53788 -5.31903
HEad  2.05225 18.5351 -5.46065
LeftShoulder1  6.86461 -10.2441 -43.4239
LeftArm  -7.93511 26.499 -27.0163
LeftForeArm  35.4543 -12.1205 -4.97711
LeftHand  -0.25398 0.0180481 5.50724
RightShoulder  4.5948 7.88836 34.3784
RightArm  3.36081 -6.88776 39.1376
RightForeArm  3.76847 30.1211 6.35803
RightHand  -2.26772 7.03479 -21.3619
LeftUpLeg  -15.3123 2.5705 -4.40624
LeftLeg  2.65654 26.8788 -5.17497
LeftFoot  3.64635 -1.39196 10.4301
LeftToes  1.06247e-005 4.65855e-005 -8.18501e-006
399
root  -6.85848 38.6711 -25.2883 177.204 -78.557 175.743
RightUpLeg  20.291 -21.7759 -10.3182
RightLeg  25.9505 6.79956 3.04607
RightFoot  -16.8018 0.336878 10.0786
RightToes  0.00048216 0.542163 -0.142577
Spine  6.76407 3.49717 4.17941
Spine1  11.9426 5.67924 -4.81639
HEad  2.67774 18.3823 -4.46857
LeftShoulder1  6.89954 -10.2402 -43.6693
LeftArm  -8.83993 26.2444 -26.2593
LeftForeArm  34.8072 -11.7078 -4.8012
LeftHand  -0.25398 0.0180481 5.50724
RightShoulder  4.75614 8.0482 35.2064
RightArm  2.96336 -8.11286 39.664
RightForeArm  2.21404 26.1338 5.49991
RightHand  -2.42348 7.68084 -21.7057
LeftUpLeg  -16.5384 10.0928 -8.99777
LeftLeg  11.1265 17.0531 0.120923
LeftFoot  4.42021 -1.86264 13.2348
LeftToes  1.06247e-005 4.65855e-005 -8.18501e-006
400
root  -8.41644 38.6804 -25.6802 -175.515 -79.366 167.777
RightUpLeg  16.219 -18.2139 -11.0061
RightLeg  36.5005 3.94046 2.845
RightFoot  -7.1708 -0.519818 13.4691
RightToes  0.00048216 0.542163 -0.142577
Spine  7.57405 3.70158 2.43786
Spine1  11.4707 5.96163 -5.39154
HEad  3.82148 18.0415 -3.72607
LeftShoulder1  7.03308 -10.4309 -43.9204
LeftArm  -10.0792 25.3957 -25.8928
LeftForeArm  33.7659 -11.3105 -4.54507
LeftHand  -0.25398 0.0180481 5.50724
RightShoulder  4.85456 8.24522 35.352
RightArm  1.81761 -8.99426 41.0368
RightForeArm  2.29649 20.2478 5.11624
RightHand  -2.35984 7.55303 -21.3427
LeftUpLeg  -16.4602 14.9754 -12.4829
LeftLeg  16.0942 10.81 3.45871
LeftFoot  2.05659 -1.59358 13.3707
LeftToes  1.06247e-005 4.65855e-005 -8.18501e-006
401
root  -9.81815 38.7762 -25.9574 -168.487 -79.4685 160.509
RightUpLeg  8.76404 -14.6858 -11.1919
RightLeg  48.622 2.2011 2.36531
RightFoot  6.86809 -1.89105 12.2371
RightToes  0.00048216 0.542163 -0.142577
Spine  8.6007 3.86452 1.88831
Spine1  10.866 6.47906 -7.06147
HEad  5.05811 17.9544 -3.68277
LeftShoulder1  7.12192 -10.5952 -43.9602
LeftArm  -11.2848 24.3177 -26.2763
LeftForeArm  32.3056 -11.8459 -4.22726
LeftHand  -0.25398 0.0180481 5.50724
RightShoulder  4.87728 8.40224 35.0036
RightArm  -2.82658 -9.47212 42.2418
RightForeArm  8.80102 14.1855 6.48627
RightHand  -1.78536 5.58296 -19.0279
LeftUpLeg  -14.9961 14.5897 -13.4823
LeftLeg  18.5097 11.3947 4.54862
LeftFoot  -1.50839 -1.08488 12.6585
LeftToes  1.06247e-005 4.65855e-005 -8.18501e-006
402
root  -11.114 38.8542 -26.2052 -162.626 -79.1024 154.625
RightUpLeg  0.595452 -11.0488 -11.1549
RightLeg  58.5634 1.22209 1.6647
RightFoot  15.2622 -2.07108 9.12431
RightToes  0.00048216 0.542163 -0.142577
Spine  9.74868 4.08862 1.28924
Spine1  10.3096 6.86044 -8.50235
HEad  5.63112 18.451 -4.44386
LeftShoulder1  7.08766 -10.5519 -43.8788
LeftArm  -11.7864 23.2062 -27.2695
LeftForeArm  30.7593 -13.8936 -3.9408
LeftHand  -0.25398 0.0180481 5.50724
RightShoulder  4.92353 8.55101 34.8832
RightArm  -4.61614 -9.88942 42.5469
RightForeArm  15.1964 10.8155 7.04513
RightHand  -1.1633 3.1578 -16.0544
LeftUpLeg  -13.2291 14.8154 -14.1016
LeftLeg  19.6789 11.3574 4.57242
LeftFoot  -4.30492 -0.710435 11.9407
LeftToes  1.06247e-005 4.65855e-005 -8.18501e-006
403
root  -12.4246 39.0509 -26.4742 -159.161 -79.6842 151.058
RightUpLeg  -6.03475 -8.75497 -10.8389
RightLeg  64.0974 0.0288692 -0.504771
RightFoot  14.9522 -1.50291 6.84758
RightToes  0.00048216 0.542163 -0.142577
Spine  11.0017 3.85118 0.792802
Spine1  9.62025 6.48004 -8.72463
HEad  5.35771 19.3889 -5.68837
LeftShoulder1  6.99072 -10.3766 -43.8214
LeftArm  -11.0175 22.1541 -28.4543
LeftForeArm  29.5924 -17.3568 -3.62928
LeftHand  -0.25398 0.0180481 5.50724
RightShoulder  4.99819 8.66786 35.1018
RightArm  -3.165 -10.6579 42.1077
RightForeArm  18.4561 10.827 7.04258
RightHand  -1.02761 2.52688 -15.2548
LeftUpLeg  -10.6732 14.2917 -13.6747
LeftLeg  19.7713 11.0599 4.0053
LeftFoot  -6.00124 -0.488282 11.2172
LeftToes  1.06247e-005 4.65855e-005 -8.18501e-006
404
root  -13.7326 39.3576 -26.7284 -155.582 -81.9184 147.357
RightUpLeg  -10.7362 -8.26121 -10.2753
RightLeg  64.2698 -1.04147 -2.941
RightFoot  10.8905 -1.11942 6.08709
RightToes  0.00048216 0.542163 -0.142577
Spine  12.2685 2.91457 0.89108
Spine1  8.84633 5.28603 -8.14191
HEad  4.80081 20.2471 -6.95823
LeftShoulder1  6.96287 -10.3088 -43.8623
LeftArm  -9.70149 21.2206 -29.411
LeftForeArm  30.0413 -21.8482 -3.42399
LeftHand  -0.25398 0.0180481 5.50724
RightShoulder  4.98305 8.62497 35.1212
RightArm  -0.771004 -12.0154 41.6665
RightForeArm  17.4336 13.0304 6.69492
RightHand  -1.2924 3.56478 -16.9294
LeftUpLeg  -7.47795 12.1757 -12.4534
LeftLeg  18.9986 11.1218 3.38684
LeftFoot  -7.37203 -0.31828 10.4245
LeftToes  1.06247e-005 4.65855e-005 -8.18501e-006
